<?xml version="1.0" standalone="no"?>
<!DOCTYPE svg PUBLIC "-//W3C//DTD SVG 20010904//EN"
 "http://www.w3.org/TR/2001/REC-SVG-20010904/DTD/svg10.dtd">
<svg version="1.0" xmlns="http://www.w3.org/2000/svg"
 width="504.000000pt" height="504.000000pt" viewBox="0 0 504.000000 504.000000"
 preserveAspectRatio="xMidYMid meet">
<metadata>
Created by potrace 1.11, written by Peter Selinger 2001-2013
</metadata>
<g transform="translate(0.000000,504.000000) scale(0.100000,-0.100000)"
fill="#000000" stroke="none">
<path d="M784 4776 c-27 -23 -29 -29 -27 -88 1 -35 -2 -88 -8 -118 -7 -30 -13
-62 -14 -70 -4 -27 16 -68 49 -102 18 -18 52 -67 77 -108 24 -41 49 -84 56
-95 7 -11 16 -27 20 -35 4 -8 11 -19 15 -25 16 -18 148 -235 148 -242 0 -3 6
-14 14 -22 7 -9 24 -36 37 -61 13 -25 27 -47 30 -50 3 -3 9 -12 13 -20 3 -8
24 -42 46 -75 21 -33 51 -82 66 -110 14 -27 30 -52 34 -55 4 -3 18 -25 31 -49
13 -24 29 -51 34 -60 6 -9 21 -34 34 -56 14 -22 27 -42 30 -45 4 -3 12 -16 19
-29 34 -59 52 -90 91 -153 22 -37 41 -70 41 -74 0 -3 6 -12 13 -19 28 -33 42
-50 39 -50 -8 0 22 -55 30 -55 5 0 6 -4 3 -10 -3 -5 -2 -10 3 -10 5 0 16 -12
23 -27 20 -40 72 -127 79 -133 11 -9 30 -65 32 -96 1 -18 -6 -43 -17 -59 -38
-53 -75 -110 -87 -135 -7 -14 -15 -27 -18 -30 -4 -3 -24 -34 -45 -70 -21 -36
-42 -67 -46 -70 -3 -3 -17 -25 -29 -50 -13 -25 -40 -71 -61 -103 -22 -32 -39
-63 -39 -68 0 -5 -3 -9 -7 -9 -5 0 -19 -23 -32 -50 -14 -28 -29 -50 -33 -50
-4 0 -8 -7 -8 -15 0 -8 -4 -15 -10 -15 -5 0 -10 -7 -10 -15 0 -8 -4 -15 -10
-15 -5 0 -10 -9 -10 -20 0 -11 -4 -20 -10 -20 -5 0 -10 -7 -10 -15 0 -8 -4
-15 -10 -15 -5 0 -10 -6 -10 -13 0 -8 -13 -32 -28 -53 -16 -21 -41 -63 -58
-91 -16 -29 -33 -53 -37 -53 -5 0 -5 -5 -2 -10 3 -5 1 -10 -4 -10 -6 0 -11 -6
-11 -14 0 -8 -6 -21 -14 -28 -7 -8 -17 -24 -20 -36 -5 -13 -12 -20 -19 -16 -7
4 -9 4 -5 -1 4 -4 0 -20 -10 -34 -9 -14 -22 -35 -29 -46 -6 -11 -40 -67 -75
-125 -35 -58 -65 -109 -68 -115 -3 -5 -25 -41 -50 -80 -25 -38 -51 -82 -58
-96 -8 -14 -25 -39 -39 -55 -14 -16 -32 -39 -40 -51 -15 -22 -19 -93 -9 -142
8 -38 20 -240 18 -301 -1 -30 3 -74 9 -96 10 -36 16 -43 50 -53 22 -7 43 -10
47 -8 7 5 156 13 372 23 216 9 242 15 273 67 15 24 135 224 230 382 33 55 99
163 147 240 48 77 133 217 190 310 182 302 303 495 310 495 4 0 27 -30 51 -68
24 -37 47 -70 52 -73 5 -3 7 -9 5 -12 -1 -4 5 -16 15 -27 9 -11 17 -24 17 -30
0 -5 6 -13 13 -17 6 -4 18 -19 25 -32 8 -13 22 -38 31 -55 18 -30 149 -242
183 -294 10 -15 21 -34 25 -42 4 -8 24 -40 45 -72 21 -31 38 -62 38 -68 0 -5
4 -10 8 -10 5 0 15 -18 22 -39 9 -28 36 -62 94 -115 105 -96 289 -280 346
-346 31 -36 55 -54 78 -58 19 -4 118 -2 220 5 103 7 231 14 286 17 100 5 145
21 147 51 1 8 2 21 3 28 2 16 -74 167 -85 167 -4 0 -38 53 -75 118 -37 64 -84
142 -104 172 -20 30 -54 87 -75 125 -20 39 -104 180 -185 315 -80 135 -197
331 -260 435 -62 105 -121 199 -130 210 -10 11 -28 40 -40 65 -28 59 -29 60
-137 238 -51 85 -93 158 -93 164 0 6 56 101 124 212 390 635 664 1081 693
1131 13 22 47 78 76 125 85 138 172 281 202 335 40 71 134 213 145 220 6 4 10
24 10 45 0 29 -6 43 -24 58 -22 17 -49 20 -213 26 -103 3 -241 7 -307 7 -117
1 -119 0 -161 -30 -24 -17 -53 -35 -66 -40 -13 -5 -78 -35 -144 -67 -66 -31
-125 -58 -132 -60 -69 -14 -118 -54 -143 -118 -5 -14 -32 -61 -60 -106 -27
-45 -50 -86 -50 -91 0 -5 -4 -9 -9 -9 -5 0 -13 -10 -16 -22 -4 -13 -17 -36
-29 -53 -13 -16 -42 -64 -67 -105 -24 -41 -47 -79 -52 -85 -4 -5 -53 -84 -109
-175 -55 -91 -105 -167 -109 -168 -5 -2 -7 -7 -4 -12 3 -4 -2 -13 -10 -20 -8
-7 -15 -19 -15 -26 0 -8 -3 -14 -7 -14 -5 0 -21 -25 -38 -55 -16 -30 -33 -55
-37 -55 -14 0 -57 68 -298 470 -134 223 -254 419 -266 435 -12 17 -40 62 -61
101 -21 39 -74 132 -118 207 -99 169 -91 164 -305 166 -171 1 -362 8 -456 17
-55 5 -64 3 -90 -20z"/>
</g>
</svg>
